name D:\school\WTK\thesis\model\3dpredictsim\Results\batch_windlass\Pog_s1_tmt_bCst_d05_k800_WL20_ig24.mot
datacolumns 128
datarows 4
range 1.56649731 1.59782725
endheader
time	pelvis_tilt	pelvis_list	pelvis_rotation	pelvis_tx	pelvis_ty	pelvis_tz	hip_flexion_l	hip_adduction_l	hip_rotation_l	hip_flexion_r	hip_adduction_r	hip_rotation_r	knee_angle_l	knee_angle_r	ankle_angle_l	ankle_angle_r	subtalar_angle_l	subtalar_angle_r	tmt_angle_l	tmt_angle_r	mtp_angle_l	mtp_angle_r	lumbar_extension	lumbar_bending	lumbar_rotation	arm_flex_l	arm_add_l	arm_rot_l	arm_flex_r	arm_add_r	arm_rot_r	elbow_flex_l	elbow_flex_r	pro_sup_l	pro_sup_r	glut_med1_l/activation	glut_med2_l/activation	glut_med3_l/activation	glut_min1_l/activation	glut_min2_l/activation	glut_min3_l/activation	semimem_l/activation	semiten_l/activation	bifemlh_l/activation	bifemsh_l/activation	sar_l/activation	add_long_l/activation	add_brev_l/activation	add_mag1_l/activation	add_mag2_l/activation	add_mag3_l/activation	tfl_l/activation	pect_l/activation	grac_l/activation	glut_max1_l/activation	glut_max2_l/activation	glut_max3_l/activation	iliacus_l/activation	psoas_l/activation	quad_fem_l/activation	gem_l/activation	peri_l/activation	rect_fem_l/activation	vas_med_l/activation	vas_int_l/activation	vas_lat_l/activation	med_gas_l/activation	lat_gas_l/activation	soleus_l/activation	tib_post_l/activation	flex_dig_l/activation	flex_hal_l/activation	tib_ant_l/activation	per_brev_l/activation	per_long_l/activation	per_tert_l/activation	ext_dig_l/activation	ext_hal_l/activation	ercspn_l/activation	intobl_l/activation	extobl_l/activation	glut_med1_r/activation	glut_med2_r/activation	glut_med3_r/activation	glut_min1_r/activation	glut_min2_r/activation	glut_min3_r/activation	semimem_r/activation	semiten_r/activation	bifemlh_r/activation	bifemsh_r/activation	sar_r/activation	add_long_r/activation	add_brev_r/activation	add_mag1_r/activation	add_mag2_r/activation	add_mag3_r/activation	tfl_r/activation	pect_r/activation	grac_r/activation	glut_max1_r/activation	glut_max2_r/activation	glut_max3_r/activation	iliacus_r/activation	psoas_r/activation	quad_fem_r/activation	gem_r/activation	peri_r/activation	rect_fem_r/activation	vas_med_r/activation	vas_int_r/activation	vas_lat_r/activation	med_gas_r/activation	lat_gas_r/activation	soleus_r/activation	tib_post_r/activation	flex_dig_r/activation	flex_hal_r/activation	tib_ant_r/activation	per_brev_r/activation	per_long_r/activation	per_tert_r/activation	ext_dig_r/activation	ext_hal_r/activation	ercspn_r/activation	intobl_r/activation	extobl_r/activation	
          1.56649731	         -2.92151637	          1.27332165	         -5.40155017	          1.95812163	          0.85928396	          0.00124537	         31.14996287	          2.39448032	         -1.88951361	        -17.63817390	         -1.12078843	          8.32946080	        -18.97406513	         -9.82969160	         -1.08259034	         -0.92822019	         -0.80767946	         12.24129235	         -0.09797716	         -4.81035610	          0.60629316	         26.95764072	         -1.01148289	          0.37917591	          1.65659128	         -8.03464548	        -13.61765545	          8.48792874	          4.61855161	        -13.47496069	         15.69344405	         17.56830984	         31.81132313	         86.51662706	         86.51662706	          0.05000116	          0.05000039	          0.05003435	          0.05000042	          0.05000042	          0.05000103	          0.05870277	          0.05870279	          0.09136051	          0.05000117	          0.05000055	          0.11152667	          0.14348300	          0.14712265	          0.16302702	          0.12102837	          0.05000051	          0.05850673	          0.05870356	          0.05000208	          0.06892038	          0.12659585	          0.05686911	          0.05501227	          0.24950390	          0.05177892	          0.05000060	          0.05000006	          0.13609936	          0.13865002	          0.11627861	          0.05870282	          0.05870282	          0.05870276	          0.05000001	          0.05000152	          0.05001309	          0.42006932	          0.25175090	          0.15251571	          0.29006829	          0.57822059	          0.05000005	          0.05000006	          0.10770279	          0.11154437	          0.28660762	          0.08138689	          0.05000021	          0.30142255	          0.18806680	          0.08569445	          0.05000113	          0.05000023	          0.05000015	          0.06890921	          0.08369483	          0.13027635	          0.05089278	          0.05000099	          0.05000379	          0.05000100	          0.25714263	          0.05857857	          0.05000048	          0.05000162	          0.05000135	          0.05000120	          0.28170623	          0.49818589	          0.05000012	          0.05000027	          0.05000005	          0.18017777	          0.09604692	          0.08141299	          0.08071690	          0.27211074	          0.34511756	          0.22875668	          0.19010409	          0.18994433	          0.25095761	          0.05000000	          0.09350526	          0.15725287	          0.05000010	          0.05000002	          0.05000008	          0.05000000	          0.05000041	          0.05000011	
          1.57694062	         -2.90979020	          1.38362762	         -5.66143545	          1.97404503	          0.85823364	          0.00106077	         30.53729746	          2.80343332	         -1.65312086	        -17.35516920	         -1.40878357	          8.10525573	        -18.93641392	        -11.89006496	         -1.50264201	         -1.81464216	         -1.46300176	         13.21201248	         -0.12359594	         -5.28053120	          0.75686283	         27.78000308	         -0.80997375	          0.12838022	          1.71809026	         -8.97733547	        -13.62036623	          8.25186794	          4.36436712	        -13.50700322	         16.01584049	         17.47730524	         32.70772685	         86.51662706	         86.51662706	          0.05000004	          0.05000016	          0.07604038	          0.05000008	          0.05000015	          0.05000018	          0.05000004	          0.05000011	          0.07781622	          0.05000012	          0.05023620	          0.09499297	          0.12221160	          0.33463084	          0.24634454	          0.10705089	          0.05000027	          0.05000123	          0.05000093	          0.05870240	          0.05870305	          0.12948810	          0.05000021	          0.06492747	          0.48404126	          0.08877475	          0.05966576	          0.06892030	          0.25184947	          0.24373035	          0.20959405	          0.05000005	          0.05000006	          0.05000000	          0.05000058	          0.05867052	          0.05000019	          0.55377444	          0.21442852	          0.12990507	          0.42071059	          0.60127734	          0.07358554	          0.05000000	          0.09173571	          0.09500777	          0.24411771	          0.06932119	          0.05000012	          0.25673638	          0.16018569	          0.07299016	          0.05001844	          0.05000031	          0.05000051	          0.05869339	          0.07128713	          0.21163534	          0.16543812	          0.09640605	          0.05000149	          0.13059742	          0.21902105	          0.10350619	          0.05000160	          0.05000071	          0.05000043	          0.05000037	          0.23994294	          0.43122685	          0.05000013	          0.05000269	          0.05870275	          0.15346623	          0.08180807	          0.15548452	          0.15370688	          0.23176996	          0.29395343	          0.19484320	          0.16192093	          0.16178495	          0.21375287	          0.06509025	          0.07964302	          0.13393996	          0.05000009	          0.09762748	          0.05000035	          0.05000002	          0.06892037	          0.06087602	
          1.58738394	         -2.89427540	          1.50333765	         -5.89828018	          1.99019285	          0.85702992	          0.00089735	         29.74757723	          3.17355757	         -1.33565560	        -17.00037228	         -1.69042855	          7.86567287	        -19.32096583	        -14.08967849	         -1.66679246	         -2.75847288	         -2.17255331	         14.10643634	         -0.28935486	         -5.66802072	          0.87391470	         28.16358818	         -0.59160395	         -0.13908097	          1.76908188	         -9.91749268	        -13.63230893	          8.08366022	          4.04204626	        -13.54674949	         16.27702237	         17.37228076	         33.61280177	         86.51662706	         86.51662706	          0.30431444	          0.30012437	          0.37440138	          0.05017440	          0.05000038	          0.33890462	          0.08746486	          0.05000061	          0.10150928	          0.05000005	          0.05000021	          0.08091153	          0.22429353	          0.28502151	          0.21278977	          0.15548935	          0.05000018	          0.06892050	          0.11052758	          0.05000009	          0.05000030	          0.14164679	          0.05863858	          0.05530195	          0.41228152	          0.07561386	          0.21558422	          0.05870278	          0.23329742	          0.23926536	          0.20399457	          0.05870273	          0.05870271	          0.05870276	          0.05000008	          0.05000032	          0.05865915	          0.52636061	          0.18263923	          0.11064648	          0.35833983	          0.58342183	          0.06267640	          0.05000001	          0.08318177	          0.08092275	          0.32604846	          0.05904424	          0.05000006	          0.21867503	          0.13643799	          0.06216930	          0.05000087	          0.05000031	          0.05000028	          0.05000005	          0.06071884	          0.18728143	          0.32249733	          0.08211450	          0.05870507	          0.11123776	          0.21906820	          0.08816485	          0.05000098	          0.05001713	          0.05006801	          0.05870171	          0.20437112	          0.40539709	          0.05000040	          0.05000036	          0.05000005	          0.13071467	          0.07167276	          0.13243387	          0.13091972	          0.19740976	          0.25037445	          0.16595743	          0.13791596	          0.13780019	          0.18206377	          0.16921572	          0.15715679	          0.16230430	          0.07190395	          0.21619804	          0.16089913	          0.06862622	          0.05870283	          0.05870288	
          1.59782725	         -2.87760173	          1.62872433	         -6.10647806	          2.00633632	          0.85575069	          0.00073492	         28.80981605	          3.52296890	         -1.01051468	        -16.53203915	         -1.95719392	          7.62163604	        -19.65192871	        -16.48707460	         -1.60556176	         -3.68103816	         -2.92465986	         14.90813630	         -0.42778491	         -5.84129651	          1.03362025	         27.74956615	         -0.37735574	         -0.41607075	          1.80924221	        -10.80096009	        -13.65004326	          8.00850466	          3.69129640	        -13.59155580	         16.48966880	         17.21789547	         34.49719551	         86.51662706	         86.51662706	          0.39745853	          0.45050444	          0.50247064	          0.24723890	          0.32909655	          0.33037140	          0.07449814	          0.10551870	          0.08646049	          0.06892038	          0.05000040	          0.06891631	          0.19104174	          0.24276682	          0.18999290	          0.16617910	          0.05000015	          0.05870314	          0.09414229	          0.27310514	          0.20176492	          0.16529224	          0.05000003	          0.05000004	          0.35116027	          0.06440435	          0.18362466	          0.05000003	          0.30011204	          0.31402588	          0.26438454	          0.05000001	          0.05000003	          0.05000000	          0.10957213	          0.05000048	          0.05000011	          0.62514075	          0.15556274	          0.09424301	          0.37807647	          0.57074000	          0.34659816	          0.06504788	          0.07084998	          0.06892585	          0.27771138	          0.05029088	          0.05000002	          0.18625655	          0.11621095	          0.05295267	          0.05002997	          0.05000022	          0.05000022	          0.05000019	          0.05869152	          0.20948348	          0.27468676	          0.06994103	          0.05000223	          0.09474695	          0.25398771	          0.07509482	          0.05000023	          0.05000037	          0.05000023	          0.05000016	          0.17407287	          0.36783943	          0.05000002	          0.05000020	          0.05000014	          0.11133613	          0.06104724	          0.11280044	          0.11151076	          0.16814350	          0.21325611	          0.14135403	          0.11746978	          0.11737126	          0.15507271	          0.20709552	          0.13385838	          0.13824256	          0.21521345	          0.24626324	          0.13704590	          0.10809046	          0.05000006	          0.05000011	
